<svg xmlns="http://www.w3.org/2000/svg" xml:space="preserve" x="0px" y="0px" viewBox="0 0 139.2 41.8"><path d="m33.3 24-3.6 1.7c-1.5.7-2.3 2.6-1.6 4.2 0 .1.1.3.1.3q.6 1.05 1.8 1.5c.8.3 1.7.3 2.5-.1l3.6-1.7c.8-.3 1.4-1 1.7-1.8s.2-1.7-.2-2.5c-.7-1.7-2.7-2.4-4.3-1.6m3.4 3.4c-.4.8-1 1.5-1.7 1.8l-2.5 1.2c-.4.2-.9.3-1.4.3-.3 0-.7 0-1-.1-.5-.2-.9-.8-.7-1.3s.8-.9 1.3-.7c.4.1.7.1 1 0l2.5-1.2c.3-.1.5-.3.7-.7.2-.5.8-.7 1.3-.5.6.2.8.8.5 1.2m41.4-1.5c-.2-.4-.6-.7-1-.9s-.9-.3-1.6-.3q-.9 0-1.5.3c-.4.2-.8.5-1 .9-.3.4-.5.8-.6 1.3s-.2 1.1-.2 1.7.1 1.1.2 1.6.3 1 .5 1.3.6.7 1 .9.9.3 1.6.3q.9 0 1.5-.3c.6-.3.8-.5 1-.9.3-.4.5-.8.6-1.3s.2-1.1.2-1.7-.1-1.1-.2-1.6-.2-.9-.5-1.3M11 25.8l-5.7-2.7c-.2-.1-.5-.1-.7 0s-.4.3-.5.5l-2 4.2c-.2.4 0 1 .5 1.2l5.7 2.7c.8.4 1.7.4 2.5.1s1.4-.9 1.8-1.7.4-1.6.1-2.5c-.3-.8-.9-1.4-1.7-1.8m-1.3 4.6c-.1.4-.5.6-.9.6-.1 0-.2-.1-.4-.1l-4.5-2.1c-.5-.3-.7-.9-.5-1.4.3-.5.9-.7 1.4-.5L9.3 29c.5.2.7.9.4 1.4m1.2-2.6c-.1.4-.5.6-.9.6-.1 0-.3 0-.4-.1l-4.5-2.1c-.5-.3-.7-.9-.5-1.4.3-.5.9-.7 1.4-.5l4.5 2.1c.5.3.7.9.4 1.4m54.6-1.9c-.2-.4-.6-.7-1-.9s-.9-.3-1.6-.3q-.9 0-1.5.3c-.6.3-.8.5-1 .9s-.5.8-.6 1.3-.2 1.1-.2 1.7.1 1.1.2 1.6.3 1 .5 1.3c.2.4.6.7 1 .9s.9.3 1.6.3q.9 0 1.5-.3c.4-.2.8-.5 1-.9s.5-.8.6-1.3.2-1.1.2-1.7-.1-1.1-.2-1.6-.3-.9-.5-1.3m52.7 3.6c-.4.1-.7.2-1 .4s-.4.4-.6.6-.2.5-.2.8c0 .5.2 1 .5 1.3s.8.5 1.5.5c.5 0 1-.1 1.4-.4s.9-.7 1.4-1.2v-2.2h-1.7c-.4 0-.9.1-1.3.2" style="fill:none"/><path d="M55.8 31.6c0-.1-.1-.1-.1-.1h-.1c-.1 0-.3.1-.5.2s-.5.3-.8.5-.7.3-1.2.5c-.5.1-1 .2-1.6.2-.7 0-1.4-.1-1.9-.4s-1-.6-1.4-1.1-.7-1.1-.9-1.9-.3-1.6-.3-2.6.1-1.8.3-2.6.5-1.4.9-1.9.9-.9 1.4-1.2 1.2-.4 1.8-.4 1.2.1 1.6.2.8.3 1.1.5.6.4.8.5.3.2.5.2c.1 0 .1 0 .2-.1 0 0 .1-.1.1-.2s.1-.2.1-.3v-1.1c0-.1 0-.1-.1-.2l-.2-.2c-.1-.1-.3-.2-.6-.4s-.6-.3-.9-.4-.7-.2-1.1-.3-.8-.1-1.3-.1c-1 0-1.9.2-2.7.5s-1.5.9-2.1 1.6-1 1.5-1.4 2.5-.5 2.1-.5 3.4c0 1.2.2 2.3.5 3.3s.7 1.7 1.3 2.4 1.2 1.1 2 1.5 1.7.5 2.7.5c.6 0 1.1-.1 1.6-.2s.9-.2 1.3-.4.7-.3.9-.5.4-.3.5-.4l.2-.2c.1-.1.1-.1.1-.2v-.9c0-.1-.2-.2-.2-.2m11.1-7c-.4-.5-1-.9-1.6-1.1s-1.4-.4-2.3-.4-1.7.1-2.4.4-1.2.7-1.7 1.2-.8 1.1-1 1.9-.3 1.5-.3 2.4q0 1.35.3 2.4c.3 1.05.5 1.3 1 1.8s1 .9 1.6 1.1 1.4.4 2.3.4 1.7-.1 2.3-.4 1.2-.7 1.7-1.2.8-1.1 1-1.9.3-1.5.3-2.4q0-1.35-.3-2.4c-.3-1.05-.5-1.3-.9-1.8m-.9 6c-.1.5-.3.9-.6 1.3s-.6.7-1 .9q-.6.3-1.5.3c-.6 0-1.1-.1-1.6-.3-.4-.2-.8-.5-1-.9s-.4-.8-.5-1.3-.2-1.1-.2-1.6c0-.6.1-1.2.2-1.7s.3-.9.6-1.3.6-.7 1-.9.9-.3 1.5-.3 1.1.1 1.6.3.7.5 1 .9c.2.4.4.8.5 1.3s.2 1 .2 1.6c-.1.6-.1 1.2-.2 1.7m13.5-6c-.4-.5-1-.9-1.6-1.1s-1.4-.4-2.3-.4-1.7.1-2.4.4-1.2.7-1.7 1.2-.8 1.1-1 1.9-.3 1.5-.3 2.4q0 1.35.3 2.4c.3 1.05.5 1.3 1 1.8s1 .9 1.6 1.1 1.4.4 2.3.4 1.7-.1 2.3-.4 1.2-.7 1.7-1.2.8-1.1 1-1.9.3-1.5.3-2.4q0-1.35-.3-2.4c-.3-1.05-.5-1.3-.9-1.8m-.9 6c-.1.5-.3.9-.6 1.3s-.6.7-1 .9-.9.2-1.5.2-1.1-.1-1.6-.3-.8-.5-1-.9-.4-.8-.5-1.3-.2-1.1-.2-1.6c0-.6.1-1.2.2-1.7s.3-.9.6-1.3.6-.7 1-.9q.6-.3 1.5-.3c.6 0 1.1.1 1.6.3s.7.5 1 .9c.2.4.4.8.5 1.3s.2 1 .2 1.6c0 .7-.1 1.3-.2 1.8m13.4 3L87.7 28l3.8-3.8.3-.3c.1-.1.1-.2.1-.3s0-.1-.1-.2-.1-.1-.2-.1-.2 0-.3-.1-.3 0-.5 0h-.5c-.2 0-.2 0-.3.1s-.2.1-.3.1-.1.1-.2.2l-4 4.4v-9.7c0-.1-.1-.1-.2-.1s-.2-.1-.3-.1h-1c-.2 0-.2 0-.3.1s-.1.1-.2.1 0 .1 0 .2v15.9c0 .1.1.1.2.1s.2.1.3.1h1c.1 0 .2 0 .3-.1s.1-.1.2-.1 0-.1 0-.2v-5.8l4.5 5.8c0 .1.1.1.2.2s.1.1.2.1.2 0 .3.1.3 0 .5 0h.5c.1 0 .2 0 .3-.1s.1-.1.2-.1 0-.1 0-.2 0-.1-.1-.2 0-.3-.1-.4m12.8-2c0-.1-.1-.1-.1-.1h-.1c-.1 0-.3.1-.5.2s-.5.3-.8.5-.7.3-1.2.5-1 .2-1.6.2c-.7 0-1.4-.1-1.9-.4s-1-.6-1.4-1.1-.7-1.1-.9-1.9-.3-1.6-.3-2.6.1-1.8.3-2.6.5-1.4.9-1.9.9-.9 1.4-1.2 1.2-.4 1.8-.4 1.2.1 1.6.2c.4.2.8.3 1.1.5s.6.4.8.5.3.2.5.2c.1 0 .1 0 .2-.1 0 0 .1-.1.1-.2s.1-.2.1-.3v-1.1c0-.1 0-.1-.1-.2l-.2-.2c-.1-.1-.3-.2-.6-.4s-.6-.3-.9-.4-.7-.2-1.1-.3-.8-.1-1.3-.1c-1 0-1.9.2-2.7.5s-1.5.9-2.1 1.6-1 1.5-1.4 2.5-.5 2.1-.5 3.4c0 1.2.2 2.3.5 3.3s.7 1.7 1.3 2.4 1.2 1.1 2 1.5 1.7.5 2.7.5c.6 0 1.1-.1 1.6-.2s.9-.2 1.3-.4.7-.3.9-.5.4-.3.5-.4l.2-.2c.1-.1.1-.1.1-.2v-.9c0-.1-.1-.2-.2-.2m8.7-8v-.1s0-.1-.1-.1-.1-.1-.2-.1-.2-.1-.4-.1-.3-.1-.4-.1h-.3c-.2 0-.5 0-.7.1s-.4.2-.7.3-.5.4-.7.6-.5.6-.8 1v-1.7c0-.1-.1-.1-.1-.1s-.2-.1-.3-.1h-.8c-.1 0-.2 0-.3.1l-.1.1v10.9c0 .1.1.1.2.1s.2.1.3.1h1c.1 0 .2 0 .3-.1s.1-.1.2-.1 0-.1 0-.2v-6.9c.3-.4.5-.8.8-1.1s.4-.5.7-.7.4-.3.6-.4.4-.1.6-.1h.5c.2 0 .3.1.4.1s.2.1.3.1.2.1.2.1.1 0 .1-.1.1-.1.1-.2v-1.1c0-.1-.4-.1-.4-.2m8.7.5c-.3-.3-.8-.6-1.3-.8s-1.2-.3-1.9-.3c-.4 0-.8 0-1.2.1s-.8.2-1.1.3-.6.2-.9.4-.4.3-.5.4-.2.2-.2.3v.8c0 .1 0 .2.1.2s.1.1.1.1h.2c.1 0 .2-.1.4-.2s.4-.2.7-.4.6-.3 1-.4.8-.2 1.3-.2c.4 0 .8.1 1.1.2s.6.3.7.5.3.5.4.8.1.7.1 1.1v1h-1.5c-.8 0-1.6.1-2.2.2s-1.2.4-1.7.7-.8.7-1 1.1-.4 1-.4 1.5.1 1 .3 1.4.4.7.7 1 .7.5 1.1.6 1 .2 1.5.2c.6 0 1.2-.1 1.8-.4s1.1-.7 1.5-1.1v1.1c0 .1 0 .2.1.2s.1.1.3.1h1c.1 0 .2-.1.3-.1s.1-.1.1-.2v-7.1c0-.7-.1-1.2-.2-1.7s-.3-1.1-.7-1.4m-.9 7.5c-.5.5-.9.9-1.4 1.2s-.9.4-1.4.4c-.6 0-1.1-.2-1.5-.5s-.5-.8-.5-1.3c0-.3.1-.6.2-.8s.3-.5.6-.6.6-.3 1-.4.9-.1 1.4-.1h1.7v2.1zm17.4 1.2c0-.1 0-.1-.1-.1h-.1c-.1 0-.1 0-.2.1s-.2.1-.3.1-.2.1-.4.1-.3.1-.5.1c-.6 0-.9-.2-1.2-.6s-.3-.9-.3-1.6V25h2.7c.1 0 .2-.1.3-.2s.1-.3.1-.6v-.4c0-.1 0-.2-.1-.3l-.1-.1h-2.9v-2.7c0-.1-.1-.1-.2-.1s-.2-.1-.3-.1h-1c-.1 0-.2 0-.3.1s-.1.1-.2.1 0 .1 0 .2v2.5H129v-1.1c0-.5 0-.8.1-1.2s.2-.6.3-.8.3-.3.5-.4.4-.1.7-.1c.2 0 .4 0 .6.1s.3.1.4.1.2.1.3.1.1.1.2.1h.1l.1-.1s0-.1.1-.2 0-.2 0-.4v-.4c0-.1 0-.2-.1-.3s-.1-.1-.1-.2-.1-.1-.2-.1-.3-.1-.6-.2-.6-.1-.8-.1c-.6 0-1.1.1-1.5.2s-.8.4-1.1.7-.5.8-.6 1.3-.2 1.2-.2 1.9v1.1h-1.7c-.1 0-.1.1-.1.1s-.1.2-.1.3v.4c0 .3 0 .5.1.6s.2.2.3.2h1.5v9.4c0 .1.1.1.2.1s.2.1.3.1h1c.2 0 .2 0 .3-.1s.1-.1.2-.1 0-.1 0-.2V25h4.7v6.2c0 .6.1 1.1.2 1.6s.3.8.5 1.1.6.5 1 .7.9.2 1.4.2h.5c.2 0 .4-.1.5-.1s.3-.1.4-.1.2-.1.3-.2.1-.2.1-.3.1-.3.1-.5v-.4c0-.1-.1-.3-.2-.4M9.3 29l-4.5-2.1c-.5-.2-1.1 0-1.4.5-.2.5 0 1.1.5 1.4l4.5 2.1c.2 0 .3.1.4.1.4 0 .8-.2.9-.6.3-.5.1-1.2-.4-1.4m1.2-2.6L6 24.3c-.5-.2-1.1 0-1.4.5-.2.5 0 1.1.5 1.4l4.5 2.1c.1.1.3.1.4.1.4 0 .8-.2.9-.6.3-.5.1-1.1-.4-1.4M7.6 12h.2v7.3c0 .6.5 1 1 1 .6 0 1-.5 1-1V12H20c3.3 0 6-2.7 6-6 0-.6-.5-1-1-1-.6 0-1 .5-1 1 0 2.2-1.8 3.9-3.9 3.9H7.6c-2.2 0-4-1.7-4-3.9s1.8-4 4-4h5.7c-.9 1-1.5 2.4-1.5 3.9 0 .6.5 1 1 1s1-.5 1-1c0-2.1 1.8-3.9 3.9-3.9h14.6c2.2 0 3.9 1.8 3.9 3.9 0 2.2-1.8 3.9-3.9 3.9h-5c-.6 0-1 .5-1 1 0 .6.5 1 1 1H30v7.3c0 .6.5 1 1 1 .6 0 1-.5 1-1V12h.2c3.3 0 6-2.7 6-6s-2.7-6-6-6H7.6c-3.3 0-6 2.7-6 6s2.7 6 6 6"/><path d="m32.5 22.2-3.6 1.7C26.6 25 25.4 27.6 26 30l-5.6 2.6-5.6-2.6c.3-1 .2-2.1-.2-3.1-.5-1.3-1.5-2.4-2.7-3l-5.7-2.7c-.7-.3-1.5-.4-2.3-.1-.7.3-1.3.8-1.7 1.5l-2 4.2c-.7 1.5 0 3.3 1.4 4l5.7 2.7c1.3.6 2.7.7 4 .2 1-.4 1.9-1 2.5-1.9l4 1.8-13 6.2c-.5.2-.7.8-.5 1.4.2.5.8.7 1.4.5l14.7-6.8 14.7 6.9c.1.1.3.1.4.1.4 0 .8-.2.9-.6.2-.5 0-1.1-.5-1.4l-13.2-6.1 4-1.9c.6.8 1.5 1.5 2.5 1.9 1.3.5 2.8.4 4-.2l3.6-1.7c1.3-.6 2.2-1.7 2.7-3 .7-1.4.6-2.8 0-4.1-1.2-2.6-4.4-3.8-7-2.6m-19.9 7.9c-.4.8-1 1.4-1.8 1.7s-1.7.3-2.5-.1L2.6 29c-.5-.2-.7-.8-.5-1.2l2-4.2c.1-.2.3-.4.5-.5s.5-.1.7 0l5.7 2.7c.8.4 1.4 1 1.7 1.8.3.9.3 1.7-.1 2.5m25.2-2c-.3.8-.9 1.5-1.7 1.8l-3.6 1.7c-.8.4-1.7.4-2.5.1q-1.2-.45-1.8-1.5s-.1-.2-.1-.3c-.7-1.6.1-3.5 1.6-4.2l3.6-1.7c1.6-.8 3.6-.1 4.3 1.6.4.8.5 1.7.2 2.5"/><path d="M36.2 26.2c-.5-.2-1.1 0-1.3.5-.2.4-.4.6-.7.7l-2.5 1.2c-.3.1-.6.1-1 0-.5-.2-1.1.2-1.3.7s.2 1.1.7 1.3c.3.1.7.1 1 .1.5 0 1-.1 1.4-.3l2.5-1.2c.7-.3 1.3-1 1.7-1.8.3-.4.1-1-.5-1.2"/></svg>