<?xml version="1.0" encoding="utf-8"?>
<!-- Generator: Adobe Illustrator 21.0.0, SVG Export Plug-In . SVG Version: 6.00 Build 0)  -->
<svg version="1.1" id="Layer_1" xmlns="http://www.w3.org/2000/svg" xmlns:xlink="http://www.w3.org/1999/xlink" x="0px" y="0px"
	 viewBox="0 0 139.2 41.8" style="enable-background:new 0 0 139.2 41.8;" xml:space="preserve">
<style type="text/css">
	.st0{fill:none;}
</style>
<g>
	<path class="st0" d="M33.3,24l-3.6,1.7c-1.5,0.7-2.3,2.6-1.6,4.2c0,0.1,0.1,0.3,0.1,0.3c0.4,0.7,1,1.2,1.8,1.5
		c0.8,0.3,1.7,0.3,2.5-0.1l3.6-1.7c0.8-0.3,1.4-1,1.7-1.8s0.2-1.7-0.2-2.5C36.9,23.9,34.9,23.2,33.3,24z M36.7,27.4
		c-0.4,0.8-1,1.5-1.7,1.8l-2.5,1.2c-0.4,0.2-0.9,0.3-1.4,0.3c-0.3,0-0.7,0-1-0.1c-0.5-0.2-0.9-0.8-0.7-1.3c0.2-0.5,0.8-0.9,1.3-0.7
		c0.4,0.1,0.7,0.1,1,0l2.5-1.2c0.3-0.1,0.5-0.3,0.7-0.7c0.2-0.5,0.8-0.7,1.3-0.5C36.8,26.4,37,27,36.7,27.4z"/>
	<path class="st0" d="M78.1,25.9c-0.2-0.4-0.6-0.7-1-0.9s-0.9-0.3-1.6-0.3c-0.6,0-1.1,0.1-1.5,0.3c-0.4,0.2-0.8,0.5-1,0.9
		c-0.3,0.4-0.5,0.8-0.6,1.3c-0.1,0.5-0.2,1.1-0.2,1.7c0,0.6,0.1,1.1,0.2,1.6s0.3,1,0.5,1.3s0.6,0.7,1,0.9s0.9,0.3,1.6,0.3
		c0.6,0,1.1-0.1,1.5-0.3s0.8-0.5,1-0.9c0.3-0.4,0.5-0.8,0.6-1.3s0.2-1.1,0.2-1.7c0-0.6-0.1-1.1-0.2-1.6S78.4,26.3,78.1,25.9z"/>
	<path class="st0" d="M11,25.8l-5.7-2.7c-0.2-0.1-0.5-0.1-0.7,0c-0.2,0.1-0.4,0.3-0.5,0.5l-2,4.2c-0.2,0.4,0,1,0.5,1.2l5.7,2.7
		c0.8,0.4,1.7,0.4,2.5,0.1s1.4-0.9,1.8-1.7c0.4-0.8,0.4-1.6,0.1-2.5C12.4,26.8,11.8,26.2,11,25.8z M9.7,30.4C9.6,30.8,9.2,31,8.8,31
		c-0.1,0-0.2-0.1-0.4-0.1l-4.5-2.1c-0.5-0.3-0.7-0.9-0.5-1.4c0.3-0.5,0.9-0.7,1.4-0.5L9.3,29C9.8,29.2,10,29.9,9.7,30.4z M10.9,27.8
		c-0.1,0.4-0.5,0.6-0.9,0.6c-0.1,0-0.3,0-0.4-0.1l-4.5-2.1c-0.5-0.3-0.7-0.9-0.5-1.4c0.3-0.5,0.9-0.7,1.4-0.5l4.5,2.1
		C11,26.7,11.2,27.3,10.9,27.8z"/>
	<path class="st0" d="M65.5,25.9c-0.2-0.4-0.6-0.7-1-0.9s-0.9-0.3-1.6-0.3c-0.6,0-1.1,0.1-1.5,0.3s-0.8,0.5-1,0.9s-0.5,0.8-0.6,1.3
		c-0.1,0.5-0.2,1.1-0.2,1.7c0,0.6,0.1,1.1,0.2,1.6s0.3,1,0.5,1.3c0.2,0.4,0.6,0.7,1,0.9c0.4,0.2,0.9,0.3,1.6,0.3
		c0.6,0,1.1-0.1,1.5-0.3c0.4-0.2,0.8-0.5,1-0.9s0.5-0.8,0.6-1.3c0.1-0.5,0.2-1.1,0.2-1.7c0-0.6-0.1-1.1-0.2-1.6S65.7,26.3,65.5,25.9
		z"/>
	<path class="st0" d="M118.2,29.5c-0.4,0.1-0.7,0.2-1,0.4s-0.4,0.4-0.6,0.6s-0.2,0.5-0.2,0.8c0,0.5,0.2,1,0.5,1.3s0.8,0.5,1.5,0.5
		c0.5,0,1-0.1,1.4-0.4s0.9-0.7,1.4-1.2v-2.2h-1.7C119.1,29.3,118.6,29.4,118.2,29.5z"/>
	<path d="M55.8,31.6c0-0.1-0.1-0.1-0.1-0.1s-0.1,0-0.1,0c-0.1,0-0.3,0.1-0.5,0.2c-0.2,0.1-0.5,0.3-0.8,0.5c-0.3,0.2-0.7,0.3-1.2,0.5
		c-0.5,0.1-1,0.2-1.6,0.2c-0.7,0-1.4-0.1-1.9-0.4s-1-0.6-1.4-1.1s-0.7-1.1-0.9-1.9S47,27.9,47,26.9c0-1,0.1-1.8,0.3-2.6
		c0.2-0.8,0.5-1.4,0.9-1.9c0.4-0.5,0.9-0.9,1.4-1.2s1.2-0.4,1.8-0.4c0.6,0,1.2,0.1,1.6,0.2s0.8,0.3,1.1,0.5c0.3,0.2,0.6,0.4,0.8,0.5
		s0.3,0.2,0.5,0.2c0.1,0,0.1,0,0.2-0.1c0,0,0.1-0.1,0.1-0.2c0-0.1,0.1-0.2,0.1-0.3c0-0.1,0-0.2,0-0.4c0-0.1,0-0.3,0-0.4s0-0.2,0-0.3
		s0-0.1-0.1-0.2s-0.1-0.1-0.2-0.2s-0.3-0.2-0.6-0.4s-0.6-0.3-0.9-0.4s-0.7-0.2-1.1-0.3s-0.8-0.1-1.3-0.1c-1,0-1.9,0.2-2.7,0.5
		s-1.5,0.9-2.1,1.6s-1,1.5-1.4,2.5s-0.5,2.1-0.5,3.4c0,1.2,0.2,2.3,0.5,3.3s0.7,1.7,1.3,2.4s1.2,1.1,2,1.5s1.7,0.5,2.7,0.5
		c0.6,0,1.1-0.1,1.6-0.2s0.9-0.2,1.3-0.4s0.7-0.3,0.9-0.5s0.4-0.3,0.5-0.4s0.1-0.1,0.2-0.2s0.1-0.1,0.1-0.2s0-0.2,0-0.2s0-0.2,0-0.3
		c0-0.2,0-0.3,0-0.4S55.8,31.6,55.8,31.6z"/>
	<path d="M66.9,24.6c-0.4-0.5-1-0.9-1.6-1.1s-1.4-0.4-2.3-0.4c-0.9,0-1.7,0.1-2.4,0.4s-1.2,0.7-1.7,1.2s-0.8,1.1-1,1.9
		s-0.3,1.5-0.3,2.4c0,0.9,0.1,1.7,0.3,2.4s0.5,1.3,1,1.8s1,0.9,1.6,1.1s1.4,0.4,2.3,0.4c0.9,0,1.7-0.1,2.3-0.4s1.2-0.7,1.7-1.2
		s0.8-1.1,1-1.9s0.3-1.5,0.3-2.4c0-0.9-0.1-1.7-0.3-2.4S67.3,25.1,66.9,24.6z M66,30.6c-0.1,0.5-0.3,0.9-0.6,1.3s-0.6,0.7-1,0.9
		c-0.4,0.2-0.9,0.3-1.5,0.3c-0.6,0-1.1-0.1-1.6-0.3c-0.4-0.2-0.8-0.5-1-0.9c-0.2-0.4-0.4-0.8-0.5-1.3s-0.2-1.1-0.2-1.6
		c0-0.6,0.1-1.2,0.2-1.7c0.1-0.5,0.3-0.9,0.6-1.3s0.6-0.7,1-0.9s0.9-0.3,1.5-0.3c0.6,0,1.1,0.1,1.6,0.3s0.7,0.5,1,0.9
		c0.2,0.4,0.4,0.8,0.5,1.3s0.2,1,0.2,1.6C66.1,29.5,66.1,30.1,66,30.6z"/>
	<path d="M79.5,24.6c-0.4-0.5-1-0.9-1.6-1.1s-1.4-0.4-2.3-0.4c-0.9,0-1.7,0.1-2.4,0.4s-1.2,0.7-1.7,1.2s-0.8,1.1-1,1.9
		s-0.3,1.5-0.3,2.4c0,0.9,0.1,1.7,0.3,2.4s0.5,1.3,1,1.8s1,0.9,1.6,1.1s1.4,0.4,2.3,0.4c0.9,0,1.7-0.1,2.3-0.4s1.2-0.7,1.7-1.2
		s0.8-1.1,1-1.9s0.3-1.5,0.3-2.4c0-0.9-0.1-1.7-0.3-2.4S79.9,25.1,79.5,24.6z M78.6,30.6c-0.1,0.5-0.3,0.9-0.6,1.3
		c-0.3,0.4-0.6,0.7-1,0.9S76.1,33,75.5,33c-0.6,0-1.1-0.1-1.6-0.3s-0.8-0.5-1-0.9s-0.4-0.8-0.5-1.3s-0.2-1.1-0.2-1.6
		c0-0.6,0.1-1.2,0.2-1.7c0.1-0.5,0.3-0.9,0.6-1.3c0.3-0.4,0.6-0.7,1-0.9c0.4-0.2,0.9-0.3,1.5-0.3c0.6,0,1.1,0.1,1.6,0.3
		s0.7,0.5,1,0.9c0.2,0.4,0.4,0.8,0.5,1.3s0.2,1,0.2,1.6C78.8,29.5,78.7,30.1,78.6,30.6z"/>
	<path d="M92,33.6L87.7,28l3.8-3.8c0.1-0.1,0.2-0.2,0.3-0.3s0.1-0.2,0.1-0.3c0-0.1,0-0.1-0.1-0.2s-0.1-0.1-0.2-0.1s-0.2,0-0.3-0.1
		s-0.3,0-0.5,0c-0.2,0-0.3,0-0.5,0s-0.2,0-0.3,0.1s-0.2,0.1-0.3,0.1s-0.1,0.1-0.2,0.2l-4,4.4v-9.5c0-0.1,0-0.1,0-0.2
		s-0.1-0.1-0.2-0.1s-0.2-0.1-0.3-0.1s-0.3,0-0.5,0c-0.2,0-0.3,0-0.5,0s-0.2,0-0.3,0.1s-0.1,0.1-0.2,0.1s0,0.1,0,0.2v15.7
		c0,0.1,0,0.1,0,0.2s0.1,0.1,0.2,0.1s0.2,0.1,0.3,0.1s0.3,0,0.5,0c0.2,0,0.4,0,0.5,0s0.2,0,0.3-0.1s0.1-0.1,0.2-0.1s0-0.1,0-0.2
		v-5.8l4.5,5.8c0,0.1,0.1,0.1,0.2,0.2s0.1,0.1,0.2,0.1s0.2,0,0.3,0.1s0.3,0,0.5,0c0.2,0,0.4,0,0.5,0s0.2,0,0.3-0.1s0.1-0.1,0.2-0.1
		s0-0.1,0-0.2c0-0.1,0-0.1-0.1-0.2S92.1,33.7,92,33.6z"/>
	<path d="M104.8,31.6c0-0.1-0.1-0.1-0.1-0.1s-0.1,0-0.1,0c-0.1,0-0.3,0.1-0.5,0.2c-0.2,0.1-0.5,0.3-0.8,0.5s-0.7,0.3-1.2,0.5
		s-1,0.2-1.6,0.2c-0.7,0-1.4-0.1-1.9-0.4s-1-0.6-1.4-1.1s-0.7-1.1-0.9-1.9S96,27.9,96,26.9c0-1,0.1-1.8,0.3-2.6
		c0.2-0.8,0.5-1.4,0.9-1.9c0.4-0.5,0.9-0.9,1.4-1.2s1.2-0.4,1.8-0.4c0.6,0,1.2,0.1,1.6,0.2c0.4,0.2,0.8,0.3,1.1,0.5s0.6,0.4,0.8,0.5
		s0.3,0.2,0.5,0.2c0.1,0,0.1,0,0.2-0.1c0,0,0.1-0.1,0.1-0.2s0.1-0.2,0.1-0.3c0-0.1,0-0.2,0-0.4c0-0.1,0-0.3,0-0.4s0-0.2,0-0.3
		s0-0.1-0.1-0.2s-0.1-0.1-0.2-0.2s-0.3-0.2-0.6-0.4s-0.6-0.3-0.9-0.4s-0.7-0.2-1.1-0.3s-0.8-0.1-1.3-0.1c-1,0-1.9,0.2-2.7,0.5
		s-1.5,0.9-2.1,1.6s-1,1.5-1.4,2.5s-0.5,2.1-0.5,3.4c0,1.2,0.2,2.3,0.5,3.3s0.7,1.7,1.3,2.4s1.2,1.1,2,1.5s1.7,0.5,2.7,0.5
		c0.6,0,1.1-0.1,1.6-0.2s0.9-0.2,1.3-0.4s0.7-0.3,0.9-0.5s0.4-0.3,0.5-0.4s0.1-0.1,0.2-0.2s0.1-0.1,0.1-0.2s0-0.2,0-0.2s0-0.2,0-0.3
		c0-0.2,0-0.3,0-0.4S104.9,31.6,104.8,31.6z"/>
	<path d="M113.5,23.6c0-0.1,0-0.1,0-0.1s0-0.1-0.1-0.1s-0.1-0.1-0.2-0.1s-0.2-0.1-0.4-0.1s-0.3-0.1-0.4-0.1s-0.2,0-0.3,0
		c-0.2,0-0.5,0-0.7,0.1s-0.4,0.2-0.7,0.3s-0.5,0.4-0.7,0.6s-0.5,0.6-0.8,1v-1.5c0-0.1,0-0.1,0-0.2s-0.1-0.1-0.1-0.1
		s-0.2-0.1-0.3-0.1s-0.3,0-0.4,0c-0.2,0-0.3,0-0.4,0s-0.2,0-0.3,0.1s-0.1,0.1-0.1,0.1s0,0.1,0,0.2v10.5c0,0.1,0,0.1,0,0.2
		s0.1,0.1,0.2,0.1s0.2,0.1,0.3,0.1s0.3,0,0.5,0c0.2,0,0.4,0,0.5,0s0.2,0,0.3-0.1s0.1-0.1,0.2-0.1s0-0.1,0-0.2v-6.9
		c0.3-0.4,0.5-0.8,0.8-1.1s0.4-0.5,0.7-0.7s0.4-0.3,0.6-0.4s0.4-0.1,0.6-0.1c0.2,0,0.3,0,0.5,0s0.3,0.1,0.4,0.1s0.2,0.1,0.3,0.1
		s0.2,0.1,0.2,0.1s0.1,0,0.1-0.1s0.1-0.1,0.1-0.2s0-0.2,0-0.3s0-0.3,0-0.4c0-0.2,0-0.3,0-0.4S113.5,23.7,113.5,23.6z"/>
	<path d="M122.2,24.1c-0.3-0.3-0.8-0.6-1.3-0.8s-1.2-0.3-1.9-0.3c-0.4,0-0.8,0-1.2,0.1s-0.8,0.2-1.1,0.3s-0.6,0.2-0.9,0.4
		s-0.4,0.3-0.5,0.4s-0.2,0.2-0.2,0.3s0,0.3,0,0.5c0,0.1,0,0.2,0,0.3s0,0.2,0.1,0.2s0.1,0.1,0.1,0.1s0.1,0,0.2,0
		c0.1,0,0.2-0.1,0.4-0.2s0.4-0.2,0.7-0.4s0.6-0.3,1-0.4s0.8-0.2,1.3-0.2c0.4,0,0.8,0.1,1.1,0.2s0.6,0.3,0.7,0.5s0.3,0.5,0.4,0.8
		s0.1,0.7,0.1,1.1V28h-1.5c-0.8,0-1.6,0.1-2.2,0.2s-1.2,0.4-1.7,0.7s-0.8,0.7-1,1.1s-0.4,1-0.4,1.5c0,0.5,0.1,1,0.3,1.4
		s0.4,0.7,0.7,1s0.7,0.5,1.1,0.6s1,0.2,1.5,0.2c0.6,0,1.2-0.1,1.8-0.4s1.1-0.7,1.5-1.1v1.1c0,0.1,0,0.2,0.1,0.2s0.1,0.1,0.3,0.1
		s0.3,0,0.5,0c0.2,0,0.4,0,0.5,0s0.2-0.1,0.3-0.1s0.1-0.1,0.1-0.2v-7.1c0-0.7-0.1-1.2-0.2-1.7S122.6,24.4,122.2,24.1z M121.3,31.6
		c-0.5,0.5-0.9,0.9-1.4,1.2s-0.9,0.4-1.4,0.4c-0.6,0-1.1-0.2-1.5-0.5s-0.5-0.8-0.5-1.3c0-0.3,0.1-0.6,0.2-0.8s0.3-0.5,0.6-0.6
		s0.6-0.3,1-0.4s0.9-0.1,1.4-0.1h1.7V31.6z"/>
	<path d="M138.7,32.8c0-0.1,0-0.1-0.1-0.1s-0.1,0-0.1,0c-0.1,0-0.1,0-0.2,0.1s-0.2,0.1-0.3,0.1s-0.2,0.1-0.4,0.1s-0.3,0.1-0.5,0.1
		c-0.6,0-0.9-0.2-1.2-0.6s-0.3-0.9-0.3-1.6v-5.9h2.7c0.1,0,0.2-0.1,0.3-0.2s0.1-0.3,0.1-0.6c0-0.1,0-0.3,0-0.4s0-0.2-0.1-0.3
		s-0.1-0.1-0.1-0.1s-0.1,0-0.2,0h-2.7v-2.5c0-0.1,0-0.1,0-0.2s-0.1-0.1-0.2-0.1s-0.2-0.1-0.3-0.1s-0.3,0-0.5,0c-0.2,0-0.4,0-0.5,0
		s-0.2,0-0.3,0.1s-0.1,0.1-0.2,0.1s0,0.1,0,0.2v2.5H129v-1.1c0-0.5,0-0.8,0.1-1.2s0.2-0.6,0.3-0.8s0.3-0.3,0.5-0.4s0.4-0.1,0.7-0.1
		c0.2,0,0.4,0,0.6,0.1s0.3,0.1,0.4,0.1s0.2,0.1,0.3,0.1s0.1,0.1,0.2,0.1c0,0,0.1,0,0.1,0s0.1-0.1,0.1-0.1s0-0.1,0.1-0.2s0-0.2,0-0.4
		s0-0.3,0-0.4s0-0.2-0.1-0.3s-0.1-0.1-0.1-0.2s-0.1-0.1-0.2-0.1s-0.3-0.1-0.6-0.2s-0.6-0.1-0.8-0.1c-0.6,0-1.1,0.1-1.5,0.2
		s-0.8,0.4-1.1,0.7s-0.5,0.8-0.6,1.3s-0.2,1.2-0.2,1.9v1.1h-1.5c-0.1,0-0.1,0-0.2,0s-0.1,0.1-0.1,0.1s-0.1,0.2-0.1,0.3s0,0.2,0,0.4
		c0,0.3,0,0.5,0.1,0.6s0.2,0.2,0.3,0.2h1.5v9.2c0,0.1,0,0.1,0,0.2s0.1,0.1,0.2,0.1s0.2,0.1,0.3,0.1s0.3,0,0.5,0s0.3,0,0.5,0
		s0.2,0,0.3-0.1s0.1-0.1,0.2-0.1s0-0.1,0-0.2v-9.2h4.7v6.2c0,0.6,0.1,1.1,0.2,1.6s0.3,0.8,0.5,1.1s0.6,0.5,1,0.7s0.9,0.2,1.4,0.2
		c0.2,0,0.3,0,0.5,0s0.4-0.1,0.5-0.1s0.3-0.1,0.4-0.1s0.2-0.1,0.3-0.2s0.1-0.2,0.1-0.3s0.1-0.3,0.1-0.5c0-0.1,0-0.3,0-0.4
		S138.8,32.9,138.7,32.8z"/>
	<path d="M9.3,29l-4.5-2.1c-0.5-0.2-1.1,0-1.4,0.5c-0.2,0.5,0,1.1,0.5,1.4l4.5,2.1c0.2,0,0.3,0.1,0.4,0.1c0.4,0,0.8-0.2,0.9-0.6
		C10,29.9,9.8,29.2,9.3,29z"/>
	<path d="M10.5,26.4L6,24.3c-0.5-0.2-1.1,0-1.4,0.5c-0.2,0.5,0,1.1,0.5,1.4l4.5,2.1c0.1,0.1,0.3,0.1,0.4,0.1c0.4,0,0.8-0.2,0.9-0.6
		C11.2,27.3,11,26.7,10.5,26.4z"/>
	<path d="M7.6,12h0.2v7.3c0,0.6,0.5,1,1,1c0.6,0,1-0.5,1-1V12H20c3.3,0,6-2.7,6-6c0-0.6-0.5-1-1-1c-0.6,0-1,0.5-1,1
		c0,2.2-1.8,3.9-3.9,3.9H7.6c-2.2,0-4-1.7-4-3.9s1.8-4,4-4h5.7c-0.9,1-1.5,2.4-1.5,3.9c0,0.6,0.5,1,1,1s1-0.5,1-1
		c0-2.1,1.8-3.9,3.9-3.9h14.6c2.2,0,3.9,1.8,3.9,3.9c0,2.2-1.8,3.9-3.9,3.9h-5c-0.6,0-1,0.5-1,1c0,0.6,0.5,1,1,1H30v7.3
		c0,0.6,0.5,1,1,1c0.6,0,1-0.5,1-1V12h0.2c3.3,0,6-2.7,6-6s-2.7-6-6-6H7.6c-3.3,0-6,2.7-6,6S4.3,12,7.6,12z"/>
	<path d="M32.5,22.2l-3.6,1.7C26.6,25,25.4,27.6,26,30l-5.6,2.6L14.8,30c0.3-1,0.2-2.1-0.2-3.1c-0.5-1.3-1.5-2.4-2.7-3l-5.7-2.7
		c-0.7-0.3-1.5-0.4-2.3-0.1c-0.7,0.3-1.3,0.8-1.7,1.5l-2,4.2c-0.7,1.5,0,3.3,1.4,4l5.7,2.7c1.3,0.6,2.7,0.7,4,0.2
		c1-0.4,1.9-1,2.5-1.9l4,1.8l-13,6.2c-0.5,0.2-0.7,0.8-0.5,1.4c0.2,0.5,0.8,0.7,1.4,0.5l14.7-6.8l14.7,6.9c0.1,0.1,0.3,0.1,0.4,0.1
		c0.4,0,0.8-0.2,0.9-0.6c0.2-0.5,0-1.1-0.5-1.4l-13.2-6.1l4-1.9c0.6,0.8,1.5,1.5,2.5,1.9c1.3,0.5,2.8,0.4,4-0.2l3.6-1.7
		c1.3-0.6,2.2-1.7,2.7-3c0.7-1.4,0.6-2.8,0-4.1C38.3,22.2,35.1,21,32.5,22.2z M12.6,30.1c-0.4,0.8-1,1.4-1.8,1.7s-1.7,0.3-2.5-0.1
		L2.6,29c-0.5-0.2-0.7-0.8-0.5-1.2l2-4.2c0.1-0.2,0.3-0.4,0.5-0.5c0.2-0.1,0.5-0.1,0.7,0l5.7,2.7c0.8,0.4,1.4,1,1.7,1.8
		C13,28.5,13,29.3,12.6,30.1z M37.8,28.1c-0.3,0.8-0.9,1.5-1.7,1.8l-3.6,1.7C31.7,32,30.8,32,30,31.7c-0.8-0.3-1.4-0.8-1.8-1.5
		c0,0-0.1-0.2-0.1-0.3c-0.7-1.6,0.1-3.5,1.6-4.2l3.6-1.7c1.6-0.8,3.6-0.1,4.3,1.6C38,26.4,38.1,27.3,37.8,28.1z"/>
	<path d="M36.2,26.2c-0.5-0.2-1.1,0-1.3,0.5c-0.2,0.4-0.4,0.6-0.7,0.7l-2.5,1.2c-0.3,0.1-0.6,0.1-1,0c-0.5-0.2-1.1,0.2-1.3,0.7
		c-0.2,0.5,0.2,1.1,0.7,1.3c0.3,0.1,0.7,0.1,1,0.1c0.5,0,1-0.1,1.4-0.3l2.5-1.2c0.7-0.3,1.3-1,1.7-1.8C37,27,36.8,26.4,36.2,26.2z"
		/>
</g>
</svg>
